<mxfile host="app.diagrams.net" modified="2021-08-20T01:16:39.647Z" agent="5.0 (Macintosh; Intel Mac OS X 10_15_7) AppleWebKit/537.36 (KHTML, like Gecko) Chrome/92.0.4515.131 Safari/537.36" etag="RYP5iY47-DoUMLJXP8ds" version="14.9.7" type="github">
  <diagram id="MqxsEV9NelQnV7g80bGL" name="Page-1">
    <mxGraphModel dx="1298" dy="808" grid="1" gridSize="10" guides="1" tooltips="1" connect="1" arrows="1" fold="1" page="1" pageScale="1" pageWidth="827" pageHeight="1169" math="0" shadow="0">
      <root>
        <mxCell id="0" />
        <mxCell id="1" parent="0" />
        <mxCell id="qi7RWYg5ygmWMCVX6bpg-1" value="Paddle Program" style="rounded=1;whiteSpace=wrap;html=1;fillColor=#f5f5f5;strokeColor=#666666;fontColor=#333333;" vertex="1" parent="1">
          <mxGeometry x="30" y="100" width="140" height="310" as="geometry" />
        </mxCell>
        <mxCell id="qi7RWYg5ygmWMCVX6bpg-2" value="Paddle Dialect&lt;br&gt;Program" style="rounded=1;whiteSpace=wrap;html=1;fillColor=#dae8fc;strokeColor=#6c8ebf;" vertex="1" parent="1">
          <mxGeometry x="310" y="100" width="140" height="310" as="geometry" />
        </mxCell>
        <mxCell id="qi7RWYg5ygmWMCVX6bpg-3" value="" style="rounded=1;whiteSpace=wrap;html=1;fillColor=#dae8fc;strokeColor=#6c8ebf;" vertex="1" parent="1">
          <mxGeometry x="570" y="100" width="140" height="310" as="geometry" />
        </mxCell>
        <mxCell id="qi7RWYg5ygmWMCVX6bpg-4" value="CPU Dialect&lt;br&gt;Problem" style="rounded=0;whiteSpace=wrap;html=1;fillColor=#d5e8d4;strokeColor=#82b366;" vertex="1" parent="1">
          <mxGeometry x="580" y="150" width="120" height="60" as="geometry" />
        </mxCell>
        <mxCell id="qi7RWYg5ygmWMCVX6bpg-5" value="TRT Dialect&lt;br&gt;Problem" style="rounded=0;whiteSpace=wrap;html=1;fillColor=#fff2cc;strokeColor=#d6b656;" vertex="1" parent="1">
          <mxGeometry x="580" y="300" width="120" height="60" as="geometry" />
        </mxCell>
        <mxCell id="qi7RWYg5ygmWMCVX6bpg-6" value="" style="shape=flexArrow;endArrow=classic;html=1;" edge="1" parent="1">
          <mxGeometry width="50" height="50" relative="1" as="geometry">
            <mxPoint x="210" y="260" as="sourcePoint" />
            <mxPoint x="270" y="260" as="targetPoint" />
          </mxGeometry>
        </mxCell>
        <mxCell id="qi7RWYg5ygmWMCVX6bpg-7" value="" style="shape=flexArrow;endArrow=classic;html=1;" edge="1" parent="1">
          <mxGeometry width="50" height="50" relative="1" as="geometry">
            <mxPoint x="480" y="260" as="sourcePoint" />
            <mxPoint x="540" y="260" as="targetPoint" />
          </mxGeometry>
        </mxCell>
        <mxCell id="qi7RWYg5ygmWMCVX6bpg-8" value="Translate" style="text;html=1;strokeColor=none;fillColor=none;align=center;verticalAlign=middle;whiteSpace=wrap;rounded=0;" vertex="1" parent="1">
          <mxGeometry x="220" y="220" width="40" height="20" as="geometry" />
        </mxCell>
        <mxCell id="qi7RWYg5ygmWMCVX6bpg-9" value="Translate" style="text;html=1;strokeColor=none;fillColor=none;align=center;verticalAlign=middle;whiteSpace=wrap;rounded=0;" vertex="1" parent="1">
          <mxGeometry x="490" y="220" width="40" height="20" as="geometry" />
        </mxCell>
        <mxCell id="qi7RWYg5ygmWMCVX6bpg-11" value="" style="html=1;shadow=0;dashed=0;align=center;verticalAlign=middle;shape=mxgraph.arrows2.uTurnArrow;dy=11;arrowHead=43;dx2=25;rotation=-180;" vertex="1" parent="1">
          <mxGeometry x="450" y="80" width="80" height="80" as="geometry" />
        </mxCell>
        <mxCell id="qi7RWYg5ygmWMCVX6bpg-12" value="" style="html=1;shadow=0;dashed=0;align=center;verticalAlign=middle;shape=mxgraph.arrows2.uTurnArrow;dy=11;arrowHead=43;dx2=25;rotation=-180;" vertex="1" parent="1">
          <mxGeometry x="710" y="80" width="80" height="80" as="geometry" />
        </mxCell>
        <mxCell id="qi7RWYg5ygmWMCVX6bpg-13" value="Pass" style="text;html=1;strokeColor=none;fillColor=none;align=center;verticalAlign=middle;whiteSpace=wrap;rounded=0;" vertex="1" parent="1">
          <mxGeometry x="460" y="50" width="40" height="20" as="geometry" />
        </mxCell>
        <mxCell id="qi7RWYg5ygmWMCVX6bpg-14" value="Pass" style="text;html=1;strokeColor=none;fillColor=none;align=center;verticalAlign=middle;whiteSpace=wrap;rounded=0;" vertex="1" parent="1">
          <mxGeometry x="730" y="50" width="40" height="20" as="geometry" />
        </mxCell>
      </root>
    </mxGraphModel>
  </diagram>
</mxfile>
